G75*
%MOIN*%
%OFA0B0*%
%FSLAX25Y25*%
%IPPOS*%
%LPD*%
%AMOC8*
5,1,8,0,0,1.08239X$1,22.5*
%
%ADD10C,0.00000*%
%ADD11C,0.05600*%
%ADD12R,0.05315X0.01575*%
%ADD13C,0.05746*%
%ADD14C,0.08858*%
%ADD15C,0.07400*%
%ADD16C,0.05943*%
%ADD17OC8,0.05600*%
%ADD18C,0.06337*%
%ADD19C,0.05600*%
%ADD20C,0.01600*%
%ADD21C,0.04165*%
D10*
X0091250Y0001800D02*
X0091250Y0395501D01*
X0484951Y0395501D01*
X0484951Y0001800D01*
X0091250Y0001800D01*
X0095000Y0306800D02*
X0095002Y0306958D01*
X0095008Y0307115D01*
X0095018Y0307273D01*
X0095032Y0307430D01*
X0095050Y0307586D01*
X0095071Y0307743D01*
X0095097Y0307898D01*
X0095127Y0308053D01*
X0095160Y0308207D01*
X0095198Y0308360D01*
X0095239Y0308513D01*
X0095284Y0308664D01*
X0095333Y0308814D01*
X0095386Y0308962D01*
X0095442Y0309110D01*
X0095503Y0309255D01*
X0095566Y0309400D01*
X0095634Y0309542D01*
X0095705Y0309683D01*
X0095779Y0309822D01*
X0095857Y0309959D01*
X0095939Y0310094D01*
X0096023Y0310227D01*
X0096112Y0310358D01*
X0096203Y0310486D01*
X0096298Y0310613D01*
X0096395Y0310736D01*
X0096496Y0310858D01*
X0096600Y0310976D01*
X0096707Y0311092D01*
X0096817Y0311205D01*
X0096929Y0311316D01*
X0097045Y0311423D01*
X0097163Y0311528D01*
X0097283Y0311630D01*
X0097406Y0311728D01*
X0097532Y0311824D01*
X0097660Y0311916D01*
X0097790Y0312005D01*
X0097922Y0312091D01*
X0098057Y0312173D01*
X0098194Y0312252D01*
X0098332Y0312327D01*
X0098472Y0312399D01*
X0098615Y0312467D01*
X0098758Y0312532D01*
X0098904Y0312593D01*
X0099051Y0312650D01*
X0099199Y0312704D01*
X0099349Y0312754D01*
X0099499Y0312800D01*
X0099651Y0312842D01*
X0099804Y0312881D01*
X0099958Y0312915D01*
X0100113Y0312946D01*
X0100268Y0312972D01*
X0100424Y0312995D01*
X0100581Y0313014D01*
X0100738Y0313029D01*
X0100895Y0313040D01*
X0101053Y0313047D01*
X0101211Y0313050D01*
X0101368Y0313049D01*
X0101526Y0313044D01*
X0101683Y0313035D01*
X0101841Y0313022D01*
X0101997Y0313005D01*
X0102154Y0312984D01*
X0102309Y0312960D01*
X0102464Y0312931D01*
X0102619Y0312898D01*
X0102772Y0312862D01*
X0102925Y0312821D01*
X0103076Y0312777D01*
X0103226Y0312729D01*
X0103375Y0312678D01*
X0103523Y0312622D01*
X0103669Y0312563D01*
X0103814Y0312500D01*
X0103957Y0312433D01*
X0104098Y0312363D01*
X0104237Y0312290D01*
X0104375Y0312213D01*
X0104511Y0312132D01*
X0104644Y0312048D01*
X0104775Y0311961D01*
X0104904Y0311870D01*
X0105031Y0311776D01*
X0105156Y0311679D01*
X0105277Y0311579D01*
X0105397Y0311476D01*
X0105513Y0311370D01*
X0105627Y0311261D01*
X0105739Y0311149D01*
X0105847Y0311035D01*
X0105952Y0310917D01*
X0106055Y0310797D01*
X0106154Y0310675D01*
X0106250Y0310550D01*
X0106343Y0310422D01*
X0106433Y0310293D01*
X0106519Y0310161D01*
X0106603Y0310027D01*
X0106682Y0309891D01*
X0106759Y0309753D01*
X0106831Y0309613D01*
X0106900Y0309471D01*
X0106966Y0309328D01*
X0107028Y0309183D01*
X0107086Y0309036D01*
X0107141Y0308888D01*
X0107192Y0308739D01*
X0107239Y0308588D01*
X0107282Y0308437D01*
X0107321Y0308284D01*
X0107357Y0308130D01*
X0107388Y0307976D01*
X0107416Y0307821D01*
X0107440Y0307665D01*
X0107460Y0307508D01*
X0107476Y0307351D01*
X0107488Y0307194D01*
X0107496Y0307037D01*
X0107500Y0306879D01*
X0107500Y0306721D01*
X0107496Y0306563D01*
X0107488Y0306406D01*
X0107476Y0306249D01*
X0107460Y0306092D01*
X0107440Y0305935D01*
X0107416Y0305779D01*
X0107388Y0305624D01*
X0107357Y0305470D01*
X0107321Y0305316D01*
X0107282Y0305163D01*
X0107239Y0305012D01*
X0107192Y0304861D01*
X0107141Y0304712D01*
X0107086Y0304564D01*
X0107028Y0304417D01*
X0106966Y0304272D01*
X0106900Y0304129D01*
X0106831Y0303987D01*
X0106759Y0303847D01*
X0106682Y0303709D01*
X0106603Y0303573D01*
X0106519Y0303439D01*
X0106433Y0303307D01*
X0106343Y0303178D01*
X0106250Y0303050D01*
X0106154Y0302925D01*
X0106055Y0302803D01*
X0105952Y0302683D01*
X0105847Y0302565D01*
X0105739Y0302451D01*
X0105627Y0302339D01*
X0105513Y0302230D01*
X0105397Y0302124D01*
X0105277Y0302021D01*
X0105156Y0301921D01*
X0105031Y0301824D01*
X0104904Y0301730D01*
X0104775Y0301639D01*
X0104644Y0301552D01*
X0104511Y0301468D01*
X0104375Y0301387D01*
X0104237Y0301310D01*
X0104098Y0301237D01*
X0103957Y0301167D01*
X0103814Y0301100D01*
X0103669Y0301037D01*
X0103523Y0300978D01*
X0103375Y0300922D01*
X0103226Y0300871D01*
X0103076Y0300823D01*
X0102925Y0300779D01*
X0102772Y0300738D01*
X0102619Y0300702D01*
X0102464Y0300669D01*
X0102309Y0300640D01*
X0102154Y0300616D01*
X0101997Y0300595D01*
X0101841Y0300578D01*
X0101683Y0300565D01*
X0101526Y0300556D01*
X0101368Y0300551D01*
X0101211Y0300550D01*
X0101053Y0300553D01*
X0100895Y0300560D01*
X0100738Y0300571D01*
X0100581Y0300586D01*
X0100424Y0300605D01*
X0100268Y0300628D01*
X0100113Y0300654D01*
X0099958Y0300685D01*
X0099804Y0300719D01*
X0099651Y0300758D01*
X0099499Y0300800D01*
X0099349Y0300846D01*
X0099199Y0300896D01*
X0099051Y0300950D01*
X0098904Y0301007D01*
X0098758Y0301068D01*
X0098615Y0301133D01*
X0098472Y0301201D01*
X0098332Y0301273D01*
X0098194Y0301348D01*
X0098057Y0301427D01*
X0097922Y0301509D01*
X0097790Y0301595D01*
X0097660Y0301684D01*
X0097532Y0301776D01*
X0097406Y0301872D01*
X0097283Y0301970D01*
X0097163Y0302072D01*
X0097045Y0302177D01*
X0096929Y0302284D01*
X0096817Y0302395D01*
X0096707Y0302508D01*
X0096600Y0302624D01*
X0096496Y0302742D01*
X0096395Y0302864D01*
X0096298Y0302987D01*
X0096203Y0303114D01*
X0096112Y0303242D01*
X0096023Y0303373D01*
X0095939Y0303506D01*
X0095857Y0303641D01*
X0095779Y0303778D01*
X0095705Y0303917D01*
X0095634Y0304058D01*
X0095566Y0304200D01*
X0095503Y0304345D01*
X0095442Y0304490D01*
X0095386Y0304638D01*
X0095333Y0304786D01*
X0095284Y0304936D01*
X0095239Y0305087D01*
X0095198Y0305240D01*
X0095160Y0305393D01*
X0095127Y0305547D01*
X0095097Y0305702D01*
X0095071Y0305857D01*
X0095050Y0306014D01*
X0095032Y0306170D01*
X0095018Y0306327D01*
X0095008Y0306485D01*
X0095002Y0306642D01*
X0095000Y0306800D01*
X0095000Y0381800D02*
X0095002Y0381958D01*
X0095008Y0382115D01*
X0095018Y0382273D01*
X0095032Y0382430D01*
X0095050Y0382586D01*
X0095071Y0382743D01*
X0095097Y0382898D01*
X0095127Y0383053D01*
X0095160Y0383207D01*
X0095198Y0383360D01*
X0095239Y0383513D01*
X0095284Y0383664D01*
X0095333Y0383814D01*
X0095386Y0383962D01*
X0095442Y0384110D01*
X0095503Y0384255D01*
X0095566Y0384400D01*
X0095634Y0384542D01*
X0095705Y0384683D01*
X0095779Y0384822D01*
X0095857Y0384959D01*
X0095939Y0385094D01*
X0096023Y0385227D01*
X0096112Y0385358D01*
X0096203Y0385486D01*
X0096298Y0385613D01*
X0096395Y0385736D01*
X0096496Y0385858D01*
X0096600Y0385976D01*
X0096707Y0386092D01*
X0096817Y0386205D01*
X0096929Y0386316D01*
X0097045Y0386423D01*
X0097163Y0386528D01*
X0097283Y0386630D01*
X0097406Y0386728D01*
X0097532Y0386824D01*
X0097660Y0386916D01*
X0097790Y0387005D01*
X0097922Y0387091D01*
X0098057Y0387173D01*
X0098194Y0387252D01*
X0098332Y0387327D01*
X0098472Y0387399D01*
X0098615Y0387467D01*
X0098758Y0387532D01*
X0098904Y0387593D01*
X0099051Y0387650D01*
X0099199Y0387704D01*
X0099349Y0387754D01*
X0099499Y0387800D01*
X0099651Y0387842D01*
X0099804Y0387881D01*
X0099958Y0387915D01*
X0100113Y0387946D01*
X0100268Y0387972D01*
X0100424Y0387995D01*
X0100581Y0388014D01*
X0100738Y0388029D01*
X0100895Y0388040D01*
X0101053Y0388047D01*
X0101211Y0388050D01*
X0101368Y0388049D01*
X0101526Y0388044D01*
X0101683Y0388035D01*
X0101841Y0388022D01*
X0101997Y0388005D01*
X0102154Y0387984D01*
X0102309Y0387960D01*
X0102464Y0387931D01*
X0102619Y0387898D01*
X0102772Y0387862D01*
X0102925Y0387821D01*
X0103076Y0387777D01*
X0103226Y0387729D01*
X0103375Y0387678D01*
X0103523Y0387622D01*
X0103669Y0387563D01*
X0103814Y0387500D01*
X0103957Y0387433D01*
X0104098Y0387363D01*
X0104237Y0387290D01*
X0104375Y0387213D01*
X0104511Y0387132D01*
X0104644Y0387048D01*
X0104775Y0386961D01*
X0104904Y0386870D01*
X0105031Y0386776D01*
X0105156Y0386679D01*
X0105277Y0386579D01*
X0105397Y0386476D01*
X0105513Y0386370D01*
X0105627Y0386261D01*
X0105739Y0386149D01*
X0105847Y0386035D01*
X0105952Y0385917D01*
X0106055Y0385797D01*
X0106154Y0385675D01*
X0106250Y0385550D01*
X0106343Y0385422D01*
X0106433Y0385293D01*
X0106519Y0385161D01*
X0106603Y0385027D01*
X0106682Y0384891D01*
X0106759Y0384753D01*
X0106831Y0384613D01*
X0106900Y0384471D01*
X0106966Y0384328D01*
X0107028Y0384183D01*
X0107086Y0384036D01*
X0107141Y0383888D01*
X0107192Y0383739D01*
X0107239Y0383588D01*
X0107282Y0383437D01*
X0107321Y0383284D01*
X0107357Y0383130D01*
X0107388Y0382976D01*
X0107416Y0382821D01*
X0107440Y0382665D01*
X0107460Y0382508D01*
X0107476Y0382351D01*
X0107488Y0382194D01*
X0107496Y0382037D01*
X0107500Y0381879D01*
X0107500Y0381721D01*
X0107496Y0381563D01*
X0107488Y0381406D01*
X0107476Y0381249D01*
X0107460Y0381092D01*
X0107440Y0380935D01*
X0107416Y0380779D01*
X0107388Y0380624D01*
X0107357Y0380470D01*
X0107321Y0380316D01*
X0107282Y0380163D01*
X0107239Y0380012D01*
X0107192Y0379861D01*
X0107141Y0379712D01*
X0107086Y0379564D01*
X0107028Y0379417D01*
X0106966Y0379272D01*
X0106900Y0379129D01*
X0106831Y0378987D01*
X0106759Y0378847D01*
X0106682Y0378709D01*
X0106603Y0378573D01*
X0106519Y0378439D01*
X0106433Y0378307D01*
X0106343Y0378178D01*
X0106250Y0378050D01*
X0106154Y0377925D01*
X0106055Y0377803D01*
X0105952Y0377683D01*
X0105847Y0377565D01*
X0105739Y0377451D01*
X0105627Y0377339D01*
X0105513Y0377230D01*
X0105397Y0377124D01*
X0105277Y0377021D01*
X0105156Y0376921D01*
X0105031Y0376824D01*
X0104904Y0376730D01*
X0104775Y0376639D01*
X0104644Y0376552D01*
X0104511Y0376468D01*
X0104375Y0376387D01*
X0104237Y0376310D01*
X0104098Y0376237D01*
X0103957Y0376167D01*
X0103814Y0376100D01*
X0103669Y0376037D01*
X0103523Y0375978D01*
X0103375Y0375922D01*
X0103226Y0375871D01*
X0103076Y0375823D01*
X0102925Y0375779D01*
X0102772Y0375738D01*
X0102619Y0375702D01*
X0102464Y0375669D01*
X0102309Y0375640D01*
X0102154Y0375616D01*
X0101997Y0375595D01*
X0101841Y0375578D01*
X0101683Y0375565D01*
X0101526Y0375556D01*
X0101368Y0375551D01*
X0101211Y0375550D01*
X0101053Y0375553D01*
X0100895Y0375560D01*
X0100738Y0375571D01*
X0100581Y0375586D01*
X0100424Y0375605D01*
X0100268Y0375628D01*
X0100113Y0375654D01*
X0099958Y0375685D01*
X0099804Y0375719D01*
X0099651Y0375758D01*
X0099499Y0375800D01*
X0099349Y0375846D01*
X0099199Y0375896D01*
X0099051Y0375950D01*
X0098904Y0376007D01*
X0098758Y0376068D01*
X0098615Y0376133D01*
X0098472Y0376201D01*
X0098332Y0376273D01*
X0098194Y0376348D01*
X0098057Y0376427D01*
X0097922Y0376509D01*
X0097790Y0376595D01*
X0097660Y0376684D01*
X0097532Y0376776D01*
X0097406Y0376872D01*
X0097283Y0376970D01*
X0097163Y0377072D01*
X0097045Y0377177D01*
X0096929Y0377284D01*
X0096817Y0377395D01*
X0096707Y0377508D01*
X0096600Y0377624D01*
X0096496Y0377742D01*
X0096395Y0377864D01*
X0096298Y0377987D01*
X0096203Y0378114D01*
X0096112Y0378242D01*
X0096023Y0378373D01*
X0095939Y0378506D01*
X0095857Y0378641D01*
X0095779Y0378778D01*
X0095705Y0378917D01*
X0095634Y0379058D01*
X0095566Y0379200D01*
X0095503Y0379345D01*
X0095442Y0379490D01*
X0095386Y0379638D01*
X0095333Y0379786D01*
X0095284Y0379936D01*
X0095239Y0380087D01*
X0095198Y0380240D01*
X0095160Y0380393D01*
X0095127Y0380547D01*
X0095097Y0380702D01*
X0095071Y0380857D01*
X0095050Y0381014D01*
X0095032Y0381170D01*
X0095018Y0381327D01*
X0095008Y0381485D01*
X0095002Y0381642D01*
X0095000Y0381800D01*
X0468700Y0381800D02*
X0468702Y0381958D01*
X0468708Y0382115D01*
X0468718Y0382273D01*
X0468732Y0382430D01*
X0468750Y0382586D01*
X0468771Y0382743D01*
X0468797Y0382898D01*
X0468827Y0383053D01*
X0468860Y0383207D01*
X0468898Y0383360D01*
X0468939Y0383513D01*
X0468984Y0383664D01*
X0469033Y0383814D01*
X0469086Y0383962D01*
X0469142Y0384110D01*
X0469203Y0384255D01*
X0469266Y0384400D01*
X0469334Y0384542D01*
X0469405Y0384683D01*
X0469479Y0384822D01*
X0469557Y0384959D01*
X0469639Y0385094D01*
X0469723Y0385227D01*
X0469812Y0385358D01*
X0469903Y0385486D01*
X0469998Y0385613D01*
X0470095Y0385736D01*
X0470196Y0385858D01*
X0470300Y0385976D01*
X0470407Y0386092D01*
X0470517Y0386205D01*
X0470629Y0386316D01*
X0470745Y0386423D01*
X0470863Y0386528D01*
X0470983Y0386630D01*
X0471106Y0386728D01*
X0471232Y0386824D01*
X0471360Y0386916D01*
X0471490Y0387005D01*
X0471622Y0387091D01*
X0471757Y0387173D01*
X0471894Y0387252D01*
X0472032Y0387327D01*
X0472172Y0387399D01*
X0472315Y0387467D01*
X0472458Y0387532D01*
X0472604Y0387593D01*
X0472751Y0387650D01*
X0472899Y0387704D01*
X0473049Y0387754D01*
X0473199Y0387800D01*
X0473351Y0387842D01*
X0473504Y0387881D01*
X0473658Y0387915D01*
X0473813Y0387946D01*
X0473968Y0387972D01*
X0474124Y0387995D01*
X0474281Y0388014D01*
X0474438Y0388029D01*
X0474595Y0388040D01*
X0474753Y0388047D01*
X0474911Y0388050D01*
X0475068Y0388049D01*
X0475226Y0388044D01*
X0475383Y0388035D01*
X0475541Y0388022D01*
X0475697Y0388005D01*
X0475854Y0387984D01*
X0476009Y0387960D01*
X0476164Y0387931D01*
X0476319Y0387898D01*
X0476472Y0387862D01*
X0476625Y0387821D01*
X0476776Y0387777D01*
X0476926Y0387729D01*
X0477075Y0387678D01*
X0477223Y0387622D01*
X0477369Y0387563D01*
X0477514Y0387500D01*
X0477657Y0387433D01*
X0477798Y0387363D01*
X0477937Y0387290D01*
X0478075Y0387213D01*
X0478211Y0387132D01*
X0478344Y0387048D01*
X0478475Y0386961D01*
X0478604Y0386870D01*
X0478731Y0386776D01*
X0478856Y0386679D01*
X0478977Y0386579D01*
X0479097Y0386476D01*
X0479213Y0386370D01*
X0479327Y0386261D01*
X0479439Y0386149D01*
X0479547Y0386035D01*
X0479652Y0385917D01*
X0479755Y0385797D01*
X0479854Y0385675D01*
X0479950Y0385550D01*
X0480043Y0385422D01*
X0480133Y0385293D01*
X0480219Y0385161D01*
X0480303Y0385027D01*
X0480382Y0384891D01*
X0480459Y0384753D01*
X0480531Y0384613D01*
X0480600Y0384471D01*
X0480666Y0384328D01*
X0480728Y0384183D01*
X0480786Y0384036D01*
X0480841Y0383888D01*
X0480892Y0383739D01*
X0480939Y0383588D01*
X0480982Y0383437D01*
X0481021Y0383284D01*
X0481057Y0383130D01*
X0481088Y0382976D01*
X0481116Y0382821D01*
X0481140Y0382665D01*
X0481160Y0382508D01*
X0481176Y0382351D01*
X0481188Y0382194D01*
X0481196Y0382037D01*
X0481200Y0381879D01*
X0481200Y0381721D01*
X0481196Y0381563D01*
X0481188Y0381406D01*
X0481176Y0381249D01*
X0481160Y0381092D01*
X0481140Y0380935D01*
X0481116Y0380779D01*
X0481088Y0380624D01*
X0481057Y0380470D01*
X0481021Y0380316D01*
X0480982Y0380163D01*
X0480939Y0380012D01*
X0480892Y0379861D01*
X0480841Y0379712D01*
X0480786Y0379564D01*
X0480728Y0379417D01*
X0480666Y0379272D01*
X0480600Y0379129D01*
X0480531Y0378987D01*
X0480459Y0378847D01*
X0480382Y0378709D01*
X0480303Y0378573D01*
X0480219Y0378439D01*
X0480133Y0378307D01*
X0480043Y0378178D01*
X0479950Y0378050D01*
X0479854Y0377925D01*
X0479755Y0377803D01*
X0479652Y0377683D01*
X0479547Y0377565D01*
X0479439Y0377451D01*
X0479327Y0377339D01*
X0479213Y0377230D01*
X0479097Y0377124D01*
X0478977Y0377021D01*
X0478856Y0376921D01*
X0478731Y0376824D01*
X0478604Y0376730D01*
X0478475Y0376639D01*
X0478344Y0376552D01*
X0478211Y0376468D01*
X0478075Y0376387D01*
X0477937Y0376310D01*
X0477798Y0376237D01*
X0477657Y0376167D01*
X0477514Y0376100D01*
X0477369Y0376037D01*
X0477223Y0375978D01*
X0477075Y0375922D01*
X0476926Y0375871D01*
X0476776Y0375823D01*
X0476625Y0375779D01*
X0476472Y0375738D01*
X0476319Y0375702D01*
X0476164Y0375669D01*
X0476009Y0375640D01*
X0475854Y0375616D01*
X0475697Y0375595D01*
X0475541Y0375578D01*
X0475383Y0375565D01*
X0475226Y0375556D01*
X0475068Y0375551D01*
X0474911Y0375550D01*
X0474753Y0375553D01*
X0474595Y0375560D01*
X0474438Y0375571D01*
X0474281Y0375586D01*
X0474124Y0375605D01*
X0473968Y0375628D01*
X0473813Y0375654D01*
X0473658Y0375685D01*
X0473504Y0375719D01*
X0473351Y0375758D01*
X0473199Y0375800D01*
X0473049Y0375846D01*
X0472899Y0375896D01*
X0472751Y0375950D01*
X0472604Y0376007D01*
X0472458Y0376068D01*
X0472315Y0376133D01*
X0472172Y0376201D01*
X0472032Y0376273D01*
X0471894Y0376348D01*
X0471757Y0376427D01*
X0471622Y0376509D01*
X0471490Y0376595D01*
X0471360Y0376684D01*
X0471232Y0376776D01*
X0471106Y0376872D01*
X0470983Y0376970D01*
X0470863Y0377072D01*
X0470745Y0377177D01*
X0470629Y0377284D01*
X0470517Y0377395D01*
X0470407Y0377508D01*
X0470300Y0377624D01*
X0470196Y0377742D01*
X0470095Y0377864D01*
X0469998Y0377987D01*
X0469903Y0378114D01*
X0469812Y0378242D01*
X0469723Y0378373D01*
X0469639Y0378506D01*
X0469557Y0378641D01*
X0469479Y0378778D01*
X0469405Y0378917D01*
X0469334Y0379058D01*
X0469266Y0379200D01*
X0469203Y0379345D01*
X0469142Y0379490D01*
X0469086Y0379638D01*
X0469033Y0379786D01*
X0468984Y0379936D01*
X0468939Y0380087D01*
X0468898Y0380240D01*
X0468860Y0380393D01*
X0468827Y0380547D01*
X0468797Y0380702D01*
X0468771Y0380857D01*
X0468750Y0381014D01*
X0468732Y0381170D01*
X0468718Y0381327D01*
X0468708Y0381485D01*
X0468702Y0381642D01*
X0468700Y0381800D01*
X0468700Y0306800D02*
X0468702Y0306958D01*
X0468708Y0307115D01*
X0468718Y0307273D01*
X0468732Y0307430D01*
X0468750Y0307586D01*
X0468771Y0307743D01*
X0468797Y0307898D01*
X0468827Y0308053D01*
X0468860Y0308207D01*
X0468898Y0308360D01*
X0468939Y0308513D01*
X0468984Y0308664D01*
X0469033Y0308814D01*
X0469086Y0308962D01*
X0469142Y0309110D01*
X0469203Y0309255D01*
X0469266Y0309400D01*
X0469334Y0309542D01*
X0469405Y0309683D01*
X0469479Y0309822D01*
X0469557Y0309959D01*
X0469639Y0310094D01*
X0469723Y0310227D01*
X0469812Y0310358D01*
X0469903Y0310486D01*
X0469998Y0310613D01*
X0470095Y0310736D01*
X0470196Y0310858D01*
X0470300Y0310976D01*
X0470407Y0311092D01*
X0470517Y0311205D01*
X0470629Y0311316D01*
X0470745Y0311423D01*
X0470863Y0311528D01*
X0470983Y0311630D01*
X0471106Y0311728D01*
X0471232Y0311824D01*
X0471360Y0311916D01*
X0471490Y0312005D01*
X0471622Y0312091D01*
X0471757Y0312173D01*
X0471894Y0312252D01*
X0472032Y0312327D01*
X0472172Y0312399D01*
X0472315Y0312467D01*
X0472458Y0312532D01*
X0472604Y0312593D01*
X0472751Y0312650D01*
X0472899Y0312704D01*
X0473049Y0312754D01*
X0473199Y0312800D01*
X0473351Y0312842D01*
X0473504Y0312881D01*
X0473658Y0312915D01*
X0473813Y0312946D01*
X0473968Y0312972D01*
X0474124Y0312995D01*
X0474281Y0313014D01*
X0474438Y0313029D01*
X0474595Y0313040D01*
X0474753Y0313047D01*
X0474911Y0313050D01*
X0475068Y0313049D01*
X0475226Y0313044D01*
X0475383Y0313035D01*
X0475541Y0313022D01*
X0475697Y0313005D01*
X0475854Y0312984D01*
X0476009Y0312960D01*
X0476164Y0312931D01*
X0476319Y0312898D01*
X0476472Y0312862D01*
X0476625Y0312821D01*
X0476776Y0312777D01*
X0476926Y0312729D01*
X0477075Y0312678D01*
X0477223Y0312622D01*
X0477369Y0312563D01*
X0477514Y0312500D01*
X0477657Y0312433D01*
X0477798Y0312363D01*
X0477937Y0312290D01*
X0478075Y0312213D01*
X0478211Y0312132D01*
X0478344Y0312048D01*
X0478475Y0311961D01*
X0478604Y0311870D01*
X0478731Y0311776D01*
X0478856Y0311679D01*
X0478977Y0311579D01*
X0479097Y0311476D01*
X0479213Y0311370D01*
X0479327Y0311261D01*
X0479439Y0311149D01*
X0479547Y0311035D01*
X0479652Y0310917D01*
X0479755Y0310797D01*
X0479854Y0310675D01*
X0479950Y0310550D01*
X0480043Y0310422D01*
X0480133Y0310293D01*
X0480219Y0310161D01*
X0480303Y0310027D01*
X0480382Y0309891D01*
X0480459Y0309753D01*
X0480531Y0309613D01*
X0480600Y0309471D01*
X0480666Y0309328D01*
X0480728Y0309183D01*
X0480786Y0309036D01*
X0480841Y0308888D01*
X0480892Y0308739D01*
X0480939Y0308588D01*
X0480982Y0308437D01*
X0481021Y0308284D01*
X0481057Y0308130D01*
X0481088Y0307976D01*
X0481116Y0307821D01*
X0481140Y0307665D01*
X0481160Y0307508D01*
X0481176Y0307351D01*
X0481188Y0307194D01*
X0481196Y0307037D01*
X0481200Y0306879D01*
X0481200Y0306721D01*
X0481196Y0306563D01*
X0481188Y0306406D01*
X0481176Y0306249D01*
X0481160Y0306092D01*
X0481140Y0305935D01*
X0481116Y0305779D01*
X0481088Y0305624D01*
X0481057Y0305470D01*
X0481021Y0305316D01*
X0480982Y0305163D01*
X0480939Y0305012D01*
X0480892Y0304861D01*
X0480841Y0304712D01*
X0480786Y0304564D01*
X0480728Y0304417D01*
X0480666Y0304272D01*
X0480600Y0304129D01*
X0480531Y0303987D01*
X0480459Y0303847D01*
X0480382Y0303709D01*
X0480303Y0303573D01*
X0480219Y0303439D01*
X0480133Y0303307D01*
X0480043Y0303178D01*
X0479950Y0303050D01*
X0479854Y0302925D01*
X0479755Y0302803D01*
X0479652Y0302683D01*
X0479547Y0302565D01*
X0479439Y0302451D01*
X0479327Y0302339D01*
X0479213Y0302230D01*
X0479097Y0302124D01*
X0478977Y0302021D01*
X0478856Y0301921D01*
X0478731Y0301824D01*
X0478604Y0301730D01*
X0478475Y0301639D01*
X0478344Y0301552D01*
X0478211Y0301468D01*
X0478075Y0301387D01*
X0477937Y0301310D01*
X0477798Y0301237D01*
X0477657Y0301167D01*
X0477514Y0301100D01*
X0477369Y0301037D01*
X0477223Y0300978D01*
X0477075Y0300922D01*
X0476926Y0300871D01*
X0476776Y0300823D01*
X0476625Y0300779D01*
X0476472Y0300738D01*
X0476319Y0300702D01*
X0476164Y0300669D01*
X0476009Y0300640D01*
X0475854Y0300616D01*
X0475697Y0300595D01*
X0475541Y0300578D01*
X0475383Y0300565D01*
X0475226Y0300556D01*
X0475068Y0300551D01*
X0474911Y0300550D01*
X0474753Y0300553D01*
X0474595Y0300560D01*
X0474438Y0300571D01*
X0474281Y0300586D01*
X0474124Y0300605D01*
X0473968Y0300628D01*
X0473813Y0300654D01*
X0473658Y0300685D01*
X0473504Y0300719D01*
X0473351Y0300758D01*
X0473199Y0300800D01*
X0473049Y0300846D01*
X0472899Y0300896D01*
X0472751Y0300950D01*
X0472604Y0301007D01*
X0472458Y0301068D01*
X0472315Y0301133D01*
X0472172Y0301201D01*
X0472032Y0301273D01*
X0471894Y0301348D01*
X0471757Y0301427D01*
X0471622Y0301509D01*
X0471490Y0301595D01*
X0471360Y0301684D01*
X0471232Y0301776D01*
X0471106Y0301872D01*
X0470983Y0301970D01*
X0470863Y0302072D01*
X0470745Y0302177D01*
X0470629Y0302284D01*
X0470517Y0302395D01*
X0470407Y0302508D01*
X0470300Y0302624D01*
X0470196Y0302742D01*
X0470095Y0302864D01*
X0469998Y0302987D01*
X0469903Y0303114D01*
X0469812Y0303242D01*
X0469723Y0303373D01*
X0469639Y0303506D01*
X0469557Y0303641D01*
X0469479Y0303778D01*
X0469405Y0303917D01*
X0469334Y0304058D01*
X0469266Y0304200D01*
X0469203Y0304345D01*
X0469142Y0304490D01*
X0469086Y0304638D01*
X0469033Y0304786D01*
X0468984Y0304936D01*
X0468939Y0305087D01*
X0468898Y0305240D01*
X0468860Y0305393D01*
X0468827Y0305547D01*
X0468797Y0305702D01*
X0468771Y0305857D01*
X0468750Y0306014D01*
X0468732Y0306170D01*
X0468718Y0306327D01*
X0468708Y0306485D01*
X0468702Y0306642D01*
X0468700Y0306800D01*
D11*
X0434050Y0276800D02*
X0428450Y0276800D01*
X0428450Y0266800D02*
X0434050Y0266800D01*
X0434050Y0256800D02*
X0428450Y0256800D01*
X0428450Y0246800D02*
X0434050Y0246800D01*
X0434050Y0236800D02*
X0428450Y0236800D01*
X0428450Y0226800D02*
X0434050Y0226800D01*
X0434050Y0216800D02*
X0428450Y0216800D01*
X0428450Y0206800D02*
X0434050Y0206800D01*
X0434050Y0196800D02*
X0428450Y0196800D01*
X0428450Y0186800D02*
X0434050Y0186800D01*
X0434050Y0176800D02*
X0428450Y0176800D01*
X0428450Y0166800D02*
X0434050Y0166800D01*
X0434050Y0156800D02*
X0428450Y0156800D01*
X0428450Y0146800D02*
X0434050Y0146800D01*
X0404050Y0146800D02*
X0398450Y0146800D01*
X0398450Y0156800D02*
X0404050Y0156800D01*
X0404050Y0166800D02*
X0398450Y0166800D01*
X0398450Y0176800D02*
X0404050Y0176800D01*
X0404050Y0186800D02*
X0398450Y0186800D01*
X0398450Y0196800D02*
X0404050Y0196800D01*
X0404050Y0206800D02*
X0398450Y0206800D01*
X0398450Y0216800D02*
X0404050Y0216800D01*
X0404050Y0226800D02*
X0398450Y0226800D01*
X0398450Y0236800D02*
X0404050Y0236800D01*
X0404050Y0246800D02*
X0398450Y0246800D01*
X0398450Y0256800D02*
X0404050Y0256800D01*
X0404050Y0266800D02*
X0398450Y0266800D01*
X0398450Y0276800D02*
X0404050Y0276800D01*
X0309050Y0276800D02*
X0303450Y0276800D01*
X0303450Y0266800D02*
X0309050Y0266800D01*
X0309050Y0256800D02*
X0303450Y0256800D01*
X0303450Y0246800D02*
X0309050Y0246800D01*
X0309050Y0236800D02*
X0303450Y0236800D01*
X0303450Y0226800D02*
X0309050Y0226800D01*
X0309050Y0216800D02*
X0303450Y0216800D01*
X0303450Y0206800D02*
X0309050Y0206800D01*
X0309050Y0196800D02*
X0303450Y0196800D01*
X0303450Y0186800D02*
X0309050Y0186800D01*
X0309050Y0176800D02*
X0303450Y0176800D01*
X0303450Y0166800D02*
X0309050Y0166800D01*
X0309050Y0156800D02*
X0303450Y0156800D01*
X0303450Y0146800D02*
X0309050Y0146800D01*
X0279050Y0146800D02*
X0273450Y0146800D01*
X0273450Y0156800D02*
X0279050Y0156800D01*
X0279050Y0166800D02*
X0273450Y0166800D01*
X0273450Y0176800D02*
X0279050Y0176800D01*
X0279050Y0186800D02*
X0273450Y0186800D01*
X0273450Y0196800D02*
X0279050Y0196800D01*
X0279050Y0206800D02*
X0273450Y0206800D01*
X0273450Y0216800D02*
X0279050Y0216800D01*
X0279050Y0226800D02*
X0273450Y0226800D01*
X0273450Y0236800D02*
X0279050Y0236800D01*
X0279050Y0246800D02*
X0273450Y0246800D01*
X0273450Y0256800D02*
X0279050Y0256800D01*
X0279050Y0266800D02*
X0273450Y0266800D01*
X0273450Y0276800D02*
X0279050Y0276800D01*
D12*
X0110380Y0277359D03*
X0110380Y0274800D03*
X0110380Y0272241D03*
X0110380Y0269682D03*
X0110380Y0279918D03*
D13*
X0110380Y0284643D03*
X0110380Y0264957D03*
D14*
X0099750Y0261020D03*
X0099750Y0288580D03*
D15*
X0131250Y0231800D03*
X0141250Y0231800D03*
X0151250Y0231800D03*
X0161250Y0231800D03*
X0211250Y0236800D03*
X0211250Y0246800D03*
X0211250Y0256800D03*
X0211250Y0266800D03*
X0211250Y0276800D03*
X0266250Y0326800D03*
X0266250Y0336800D03*
X0266250Y0346800D03*
X0266250Y0356800D03*
X0286250Y0356800D03*
X0286250Y0346800D03*
X0286250Y0336800D03*
X0286250Y0326800D03*
X0286250Y0316800D03*
X0316250Y0316800D03*
X0316250Y0326800D03*
X0316250Y0336800D03*
X0316250Y0346800D03*
X0316250Y0356800D03*
X0316250Y0366800D03*
X0316250Y0376800D03*
X0286250Y0376800D03*
X0286250Y0366800D03*
X0386250Y0266800D03*
X0386250Y0256800D03*
X0386250Y0246800D03*
X0386250Y0236800D03*
X0386250Y0226800D03*
X0386250Y0216800D03*
X0386250Y0206800D03*
X0446250Y0256800D03*
X0446250Y0266800D03*
X0446250Y0276800D03*
X0221250Y0101800D03*
X0211250Y0101800D03*
X0211250Y0091800D03*
X0201250Y0091800D03*
X0201250Y0101800D03*
X0191250Y0091800D03*
X0201250Y0081800D03*
X0201250Y0071800D03*
X0211250Y0071800D03*
X0211250Y0081800D03*
X0211250Y0061800D03*
X0201250Y0061800D03*
X0201250Y0051800D03*
X0201250Y0041800D03*
X0211250Y0041800D03*
X0211250Y0051800D03*
X0211250Y0031800D03*
X0211250Y0021800D03*
X0201250Y0021800D03*
X0201250Y0031800D03*
X0186250Y0041800D03*
X0146250Y0061800D03*
X0146250Y0071800D03*
X0146250Y0081800D03*
X0146250Y0091800D03*
X0146250Y0101800D03*
X0146250Y0111800D03*
X0146250Y0121800D03*
X0111250Y0116800D03*
X0111250Y0106800D03*
X0111250Y0096800D03*
X0111250Y0086800D03*
X0111250Y0076800D03*
X0111250Y0066800D03*
X0201250Y0111800D03*
X0201250Y0121800D03*
X0211250Y0121800D03*
X0211250Y0111800D03*
X0261250Y0086800D03*
X0261250Y0076800D03*
X0271250Y0076800D03*
X0271250Y0086800D03*
X0286250Y0086800D03*
X0286250Y0076800D03*
X0296250Y0076800D03*
X0296250Y0086800D03*
X0306250Y0086800D03*
X0306250Y0076800D03*
X0316250Y0076800D03*
X0316250Y0086800D03*
X0326250Y0086800D03*
X0326250Y0076800D03*
X0326250Y0066800D03*
X0326250Y0056800D03*
X0316250Y0056800D03*
X0316250Y0066800D03*
X0306250Y0066800D03*
X0306250Y0056800D03*
X0296250Y0056800D03*
X0296250Y0066800D03*
X0286250Y0066800D03*
X0286250Y0056800D03*
X0286250Y0046800D03*
X0286250Y0036800D03*
X0296250Y0036800D03*
X0296250Y0046800D03*
X0306250Y0046800D03*
X0306250Y0036800D03*
X0316250Y0036800D03*
X0316250Y0046800D03*
X0326250Y0046800D03*
X0326250Y0036800D03*
X0326250Y0026800D03*
X0326250Y0016800D03*
X0316250Y0016800D03*
X0316250Y0026800D03*
X0306250Y0026800D03*
X0306250Y0016800D03*
X0296250Y0016800D03*
X0296250Y0026800D03*
X0286250Y0026800D03*
X0286250Y0016800D03*
X0271250Y0016800D03*
X0271250Y0026800D03*
X0261250Y0026800D03*
X0261250Y0016800D03*
X0261250Y0036800D03*
X0261250Y0046800D03*
X0271250Y0046800D03*
X0271250Y0036800D03*
X0271250Y0056800D03*
X0271250Y0066800D03*
X0261250Y0066800D03*
X0261250Y0056800D03*
X0341250Y0056800D03*
X0341250Y0066800D03*
X0351250Y0066800D03*
X0351250Y0056800D03*
X0351250Y0046800D03*
X0351250Y0036800D03*
X0341250Y0036800D03*
X0341250Y0046800D03*
X0341250Y0026800D03*
X0341250Y0016800D03*
X0351250Y0016800D03*
X0351250Y0026800D03*
X0361250Y0026800D03*
X0361250Y0016800D03*
X0371250Y0016800D03*
X0371250Y0026800D03*
X0381250Y0026800D03*
X0381250Y0016800D03*
X0396250Y0016800D03*
X0396250Y0026800D03*
X0406250Y0026800D03*
X0406250Y0016800D03*
X0406250Y0036800D03*
X0406250Y0046800D03*
X0396250Y0046800D03*
X0396250Y0036800D03*
X0381250Y0036800D03*
X0381250Y0046800D03*
X0371250Y0046800D03*
X0371250Y0036800D03*
X0361250Y0036800D03*
X0361250Y0046800D03*
X0361250Y0056800D03*
X0361250Y0066800D03*
X0371250Y0066800D03*
X0371250Y0056800D03*
X0381250Y0056800D03*
X0381250Y0066800D03*
X0381250Y0076800D03*
X0381250Y0086800D03*
X0371250Y0086800D03*
X0371250Y0076800D03*
X0361250Y0076800D03*
X0361250Y0086800D03*
X0351250Y0086800D03*
X0351250Y0076800D03*
X0341250Y0076800D03*
X0341250Y0086800D03*
X0396250Y0086800D03*
X0396250Y0076800D03*
X0406250Y0076800D03*
X0406250Y0086800D03*
X0406250Y0066800D03*
X0406250Y0056800D03*
X0396250Y0056800D03*
X0396250Y0066800D03*
X0101250Y0171800D03*
X0101250Y0181800D03*
D16*
X0102250Y0210957D03*
X0102250Y0220800D03*
X0102250Y0230643D03*
D17*
X0196250Y0261800D03*
X0239750Y0272300D03*
X0239750Y0282300D03*
X0256250Y0291800D03*
X0296250Y0291800D03*
X0331250Y0276800D03*
X0331250Y0266800D03*
X0386250Y0196800D03*
X0386250Y0186800D03*
X0366250Y0156800D03*
X0351250Y0156800D03*
X0321250Y0156800D03*
X0331250Y0181800D03*
X0306250Y0131800D03*
X0321250Y0116800D03*
X0351250Y0116800D03*
X0366250Y0116800D03*
X0441250Y0116800D03*
X0441250Y0126800D03*
X0441250Y0136800D03*
X0441250Y0076800D03*
X0460750Y0035300D03*
X0420750Y0035300D03*
X0266250Y0131800D03*
X0256250Y0146800D03*
X0256250Y0156800D03*
X0196250Y0301800D03*
D18*
X0211407Y0301800D03*
X0231093Y0301800D03*
X0440750Y0066643D03*
X0440750Y0046957D03*
D19*
X0331250Y0201800D03*
D20*
X0326250Y0196800D01*
X0306250Y0196800D01*
X0298650Y0201957D02*
X0298650Y0189943D01*
X0280007Y0171300D01*
X0271493Y0171300D01*
X0265250Y0165057D01*
X0265250Y0164800D01*
X0267901Y0161800D02*
X0286250Y0161800D01*
X0286250Y0166800D01*
X0306250Y0186800D01*
X0306250Y0176800D02*
X0309750Y0173300D01*
X0349750Y0173300D01*
X0366250Y0156800D01*
X0401250Y0156800D01*
X0416250Y0161800D02*
X0416250Y0116800D01*
X0366250Y0116800D01*
X0376250Y0116800D01*
X0386250Y0106800D01*
X0331250Y0106800D01*
X0321250Y0116800D01*
X0321250Y0126800D01*
X0309250Y0138800D01*
X0264250Y0138800D01*
X0266250Y0136800D01*
X0266250Y0131800D01*
X0264250Y0138800D02*
X0256250Y0146800D01*
X0266250Y0156800D01*
X0276250Y0156800D01*
X0267901Y0161800D02*
X0266612Y0160511D01*
X0259961Y0160511D01*
X0256250Y0156800D01*
X0261250Y0166800D02*
X0246250Y0166800D01*
X0246250Y0056800D01*
X0231250Y0041800D01*
X0211250Y0041800D01*
X0211250Y0051800D02*
X0231250Y0051800D01*
X0241250Y0061800D01*
X0241250Y0181800D01*
X0276250Y0216800D01*
X0276250Y0226800D02*
X0261250Y0226800D01*
X0166250Y0131800D01*
X0166250Y0105800D01*
X0170750Y0106300D02*
X0171250Y0105800D01*
X0170750Y0106300D02*
X0170750Y0127300D01*
X0205250Y0161800D01*
X0206250Y0161800D01*
X0223250Y0173300D02*
X0225750Y0173300D01*
X0223250Y0173300D02*
X0176250Y0126300D01*
X0176250Y0105800D01*
X0191250Y0111800D02*
X0201250Y0101800D01*
X0201250Y0091800D02*
X0191250Y0091800D01*
X0201250Y0081800D02*
X0159750Y0081800D01*
X0159750Y0135300D01*
X0231250Y0206800D01*
X0231250Y0226800D01*
X0226250Y0231800D02*
X0287750Y0231800D01*
X0296250Y0231800D02*
X0301250Y0226800D01*
X0306250Y0226800D01*
X0306250Y0216800D02*
X0287250Y0197800D01*
X0287250Y0191800D01*
X0283450Y0188449D02*
X0285099Y0186800D01*
X0286250Y0186800D01*
X0283450Y0188449D02*
X0283450Y0199600D01*
X0276250Y0206800D01*
X0291250Y0211800D02*
X0291750Y0212300D01*
X0291750Y0256800D01*
X0276250Y0256800D01*
X0276250Y0266800D02*
X0256250Y0266800D01*
X0241250Y0251800D01*
X0230250Y0266800D02*
X0239750Y0272300D01*
X0301750Y0272300D01*
X0306250Y0276800D01*
X0316250Y0286800D01*
X0316250Y0316800D01*
X0306250Y0326800D01*
X0306250Y0356800D01*
X0316250Y0366800D01*
X0316250Y0356800D02*
X0326250Y0356800D01*
X0381250Y0301800D01*
X0456250Y0301800D01*
X0456250Y0246800D01*
X0431250Y0246800D01*
X0431250Y0236800D02*
X0416250Y0251800D01*
X0416250Y0296800D01*
X0366250Y0296800D01*
X0316250Y0346800D01*
X0316250Y0336800D02*
X0361250Y0291800D01*
X0411250Y0291800D01*
X0411250Y0241800D01*
X0426250Y0226800D01*
X0431250Y0226800D01*
X0431250Y0216800D02*
X0408850Y0239200D01*
X0408850Y0284200D01*
X0406250Y0286800D01*
X0356250Y0286800D01*
X0316250Y0326800D01*
X0286250Y0326800D02*
X0266250Y0326800D01*
X0266250Y0336800D02*
X0286250Y0336800D01*
X0286250Y0346800D02*
X0266250Y0346800D01*
X0266250Y0356800D02*
X0286250Y0356800D01*
X0286250Y0366800D02*
X0246250Y0366800D01*
X0121150Y0241700D01*
X0121150Y0234687D01*
X0121250Y0234587D01*
X0121250Y0226800D01*
X0126250Y0221800D01*
X0103250Y0221800D01*
X0102250Y0220800D01*
X0102250Y0230643D02*
X0124139Y0252531D01*
X0124139Y0274308D01*
X0118700Y0279746D01*
X0113304Y0279746D01*
X0113132Y0279918D01*
X0110380Y0279918D01*
X0110380Y0269682D02*
X0114368Y0269682D01*
X0116750Y0267300D01*
X0131250Y0231800D02*
X0161250Y0261800D01*
X0196250Y0261800D01*
X0201250Y0266800D01*
X0211250Y0266800D01*
X0230250Y0266800D01*
X0239750Y0282300D02*
X0246750Y0282300D01*
X0256250Y0291800D01*
X0276250Y0276800D02*
X0211250Y0276800D01*
X0211250Y0301643D01*
X0211407Y0301800D01*
X0196250Y0301800D01*
X0211250Y0246800D02*
X0276250Y0246800D01*
X0276250Y0236800D02*
X0211250Y0236800D01*
X0221250Y0226800D02*
X0226250Y0231800D01*
X0221250Y0226800D02*
X0186250Y0226800D01*
X0181250Y0221800D01*
X0166750Y0216800D02*
X0135750Y0185800D01*
X0126250Y0171800D02*
X0146250Y0171800D01*
X0181250Y0206800D01*
X0166750Y0216800D02*
X0221250Y0216800D01*
X0221250Y0206800D02*
X0152850Y0138400D01*
X0152850Y0098400D01*
X0146250Y0091800D01*
X0137250Y0100800D01*
X0137250Y0109800D01*
X0114250Y0109800D01*
X0111250Y0106800D01*
X0120250Y0105800D02*
X0111250Y0096800D01*
X0120250Y0105800D02*
X0130750Y0105800D01*
X0131250Y0105300D01*
X0131250Y0091800D01*
X0141250Y0081800D01*
X0146250Y0081800D01*
X0171250Y0076800D02*
X0171250Y0075800D01*
X0185250Y0061800D01*
X0201250Y0061800D01*
X0211250Y0061800D02*
X0231250Y0061800D01*
X0236250Y0066800D01*
X0236250Y0171800D01*
X0226250Y0181800D01*
X0232250Y0168300D02*
X0232250Y0089300D01*
X0214750Y0071800D01*
X0211250Y0071800D01*
X0201250Y0071800D02*
X0181250Y0071800D01*
X0166250Y0051800D02*
X0201250Y0051800D01*
X0201250Y0041800D02*
X0186250Y0041800D01*
X0201250Y0031800D02*
X0166250Y0031800D01*
X0166250Y0014300D01*
X0225250Y0014300D01*
X0225750Y0014800D01*
X0211250Y0031800D02*
X0251250Y0031800D01*
X0251250Y0096800D01*
X0271250Y0096800D01*
X0306250Y0131800D01*
X0306250Y0156800D02*
X0321250Y0156800D01*
X0351250Y0156800D02*
X0351250Y0131800D01*
X0366250Y0116800D01*
X0386250Y0106800D02*
X0406250Y0086800D01*
X0406250Y0076800D01*
X0406250Y0066800D01*
X0406250Y0056800D01*
X0406250Y0046800D01*
X0406250Y0036800D01*
X0406250Y0026800D01*
X0406250Y0016800D01*
X0407750Y0035300D02*
X0406250Y0036800D01*
X0407750Y0035300D02*
X0420750Y0035300D01*
X0440750Y0046957D02*
X0449093Y0046957D01*
X0460750Y0035300D01*
X0381250Y0036800D02*
X0371250Y0036800D01*
X0361250Y0036800D01*
X0351250Y0036800D01*
X0341250Y0036800D01*
X0341250Y0046800D02*
X0351250Y0046800D01*
X0361250Y0046800D01*
X0371250Y0046800D01*
X0381250Y0046800D01*
X0381250Y0056800D02*
X0371250Y0056800D01*
X0361250Y0056800D01*
X0351250Y0056800D01*
X0341250Y0056800D01*
X0341250Y0066800D02*
X0351250Y0066800D01*
X0361250Y0066800D01*
X0371250Y0066800D01*
X0381250Y0066800D01*
X0381250Y0076800D02*
X0371250Y0076800D01*
X0361250Y0076800D01*
X0351250Y0076800D01*
X0341250Y0076800D01*
X0341250Y0086800D02*
X0351250Y0086800D01*
X0361250Y0086800D01*
X0371250Y0086800D01*
X0381250Y0086800D01*
X0326250Y0086800D02*
X0316250Y0086800D01*
X0306250Y0086800D01*
X0296250Y0086800D01*
X0286250Y0086800D01*
X0286250Y0076800D02*
X0296250Y0076800D01*
X0306250Y0076800D01*
X0316250Y0076800D01*
X0326250Y0076800D01*
X0326250Y0066800D02*
X0316250Y0066800D01*
X0306250Y0066800D01*
X0296250Y0066800D01*
X0286250Y0066800D01*
X0286250Y0056800D02*
X0296250Y0056800D01*
X0306250Y0056800D01*
X0316250Y0056800D01*
X0326250Y0056800D01*
X0326250Y0046800D02*
X0316250Y0046800D01*
X0306250Y0046800D01*
X0296250Y0046800D01*
X0286250Y0046800D01*
X0286250Y0036800D02*
X0296250Y0036800D01*
X0306250Y0036800D01*
X0316250Y0036800D01*
X0326250Y0036800D01*
X0326250Y0026800D02*
X0316250Y0026800D01*
X0306250Y0026800D01*
X0296250Y0026800D01*
X0286250Y0026800D01*
X0286250Y0016800D02*
X0296250Y0016800D01*
X0306250Y0016800D01*
X0316250Y0016800D01*
X0326250Y0016800D01*
X0341250Y0016800D02*
X0351250Y0016800D01*
X0361250Y0016800D01*
X0371250Y0016800D01*
X0381250Y0016800D01*
X0381250Y0026800D02*
X0371250Y0026800D01*
X0361250Y0026800D01*
X0351250Y0026800D01*
X0341250Y0026800D01*
X0261250Y0026800D02*
X0261250Y0016800D01*
X0261250Y0026800D02*
X0261250Y0036800D01*
X0261250Y0046800D01*
X0261250Y0056800D01*
X0261250Y0076800D01*
X0261250Y0066800D01*
X0261250Y0076800D02*
X0261250Y0086800D01*
X0251250Y0101800D02*
X0251250Y0107300D01*
X0277250Y0133300D01*
X0260250Y0136300D02*
X0251750Y0136300D01*
X0251250Y0136800D01*
X0226250Y0136800D02*
X0226250Y0166800D01*
X0221250Y0146800D02*
X0201250Y0126800D01*
X0201250Y0121800D01*
X0211250Y0121800D02*
X0226250Y0136800D01*
X0226250Y0121800D02*
X0216250Y0111800D01*
X0211250Y0111800D01*
X0211250Y0101800D02*
X0221250Y0101800D01*
X0191250Y0111800D02*
X0191250Y0131800D01*
X0146250Y0121800D02*
X0141250Y0126800D01*
X0141250Y0146800D01*
X0126250Y0161800D01*
X0111250Y0161800D01*
X0106250Y0161800D01*
X0101250Y0156800D01*
X0101250Y0076800D01*
X0111250Y0066800D01*
X0221250Y0071800D02*
X0231250Y0071800D01*
X0261250Y0166800D02*
X0271250Y0176800D01*
X0276250Y0176800D01*
X0298650Y0201957D02*
X0303493Y0206800D01*
X0306250Y0206800D01*
X0336250Y0246800D02*
X0336250Y0268957D01*
X0331250Y0273957D01*
X0331250Y0276800D01*
X0306250Y0276800D01*
X0336250Y0246800D02*
X0386250Y0196800D01*
X0401250Y0196800D01*
X0406250Y0196800D01*
X0426250Y0176800D01*
X0431250Y0176800D01*
X0416250Y0161800D01*
X0446250Y0146800D02*
X0441250Y0136800D01*
X0446250Y0146800D02*
X0446250Y0191800D01*
X0431250Y0206800D01*
X0401250Y0206800D02*
X0386250Y0206800D01*
X0386250Y0216800D02*
X0401250Y0216800D01*
X0401250Y0226800D02*
X0386250Y0226800D01*
X0386250Y0236800D02*
X0401250Y0236800D01*
X0401250Y0246800D02*
X0386250Y0246800D01*
X0386250Y0256800D02*
X0401250Y0256800D01*
X0401250Y0266800D02*
X0386250Y0266800D01*
X0431250Y0266800D02*
X0446250Y0266800D01*
X0446250Y0256800D02*
X0431250Y0256800D01*
X0431250Y0276800D02*
X0446250Y0276800D01*
X0441250Y0126800D02*
X0441250Y0116800D01*
X0151250Y0221800D02*
X0151250Y0231800D01*
X0151250Y0221800D02*
X0126250Y0221800D01*
X0102250Y0210957D02*
X0102250Y0182800D01*
X0101250Y0181800D01*
X0101250Y0171800D02*
X0111250Y0161800D01*
D21*
X0126250Y0171800D03*
X0135750Y0185800D03*
X0181250Y0206800D03*
X0181250Y0221800D03*
X0221250Y0216800D03*
X0231250Y0226800D03*
X0221250Y0206800D03*
X0226250Y0181800D03*
X0225750Y0173300D03*
X0232250Y0168300D03*
X0226250Y0166800D03*
X0206250Y0161800D03*
X0221250Y0146800D03*
X0226250Y0121800D03*
X0251250Y0136800D03*
X0260250Y0136300D03*
X0277250Y0133300D03*
X0265250Y0164800D03*
X0286250Y0166800D03*
X0286250Y0186800D03*
X0287250Y0191800D03*
X0291250Y0211800D03*
X0287750Y0231800D03*
X0296250Y0231800D03*
X0241250Y0251800D03*
X0116750Y0267300D03*
X0191250Y0131800D03*
X0176250Y0105800D03*
X0171250Y0105800D03*
X0166250Y0105800D03*
X0171250Y0076800D03*
X0181250Y0071800D03*
X0166250Y0051800D03*
X0221250Y0071800D03*
X0231250Y0071800D03*
X0251250Y0101800D03*
X0225750Y0014800D03*
X0131250Y0105300D03*
M02*
