%
M48
M72
T01C0.02165
T02C0.03200
T03C0.03346
T04C0.03543
T05C0.03937
T06C0.04000
T07C0.05906
T08C0.12500
%
T01
X131250Y105300
X166250Y105800
X171250Y105800
X176250Y105800
X171250Y76800
X181250Y71800
X166250Y51800
X221250Y71800
X231250Y71800
X251250Y101800
X226250Y121800
X251250Y136800
X260250Y136300
X277250Y133300
X265250Y164800
X286250Y166800
X286250Y186800
X287250Y191800
X291250Y211800
X287750Y231800
X296250Y231800
X241250Y251800
X231250Y226800
X221250Y216800
X221250Y206800
X226250Y181800
X225750Y173300
X232250Y168300
X226250Y166800
X206250Y161800
X221250Y146800
X191250Y131800
X135750Y185800
X126250Y171800
X181250Y206800
X181250Y221800
X116750Y267300
X225750Y14800
T02
X321250Y116800
X306250Y131800
X306250Y146800
X306250Y156800
X306250Y166800
X306250Y176800
X306250Y186800
X306250Y196800
X306250Y206800
X306250Y216800
X306250Y226800
X306250Y236800
X306250Y246800
X306250Y256800
X306250Y266800
X306250Y276800
X296250Y291800
X276250Y276800
X276250Y266800
X276250Y256800
X276250Y246800
X276250Y236800
X276250Y226800
X276250Y216800
X276250Y206800
X276250Y196800
X276250Y186800
X276250Y176800
X276250Y166800
X276250Y156800
X276250Y146800
X266250Y131800
X256250Y146800
X256250Y156800
X321250Y156800
X331250Y181800
X331250Y201800
X351250Y156800
X366250Y156800
X401250Y156800
X401250Y166800
X401250Y176800
X401250Y186800
X401250Y196800
X401250Y206800
X401250Y216800
X401250Y226800
X401250Y236800
X401250Y246800
X401250Y256800
X401250Y266800
X401250Y276800
X431250Y276800
X431250Y266800
X431250Y256800
X431250Y246800
X431250Y236800
X431250Y226800
X431250Y216800
X431250Y206800
X431250Y196800
X431250Y186800
X431250Y176800
X431250Y166800
X431250Y156800
X431250Y146800
X441250Y136800
X441250Y126800
X441250Y116800
X401250Y146800
X366250Y116800
X351250Y116800
X386250Y186800
X386250Y196800
X331250Y266800
X331250Y276800
X256250Y291800
X239750Y282300
X239750Y272300
X196250Y261800
X196250Y301800
X441250Y76800
X460750Y35300
X420750Y35300
T03
X110380Y264957
X110380Y284643
T04
X102250Y230643
X102250Y220800
X102250Y210957
T05
X211407Y301800
X231093Y301800
X440750Y66643
X440750Y46957
T06
X111250Y66800
X111250Y76800
X111250Y86800
X111250Y96800
X111250Y106800
X111250Y116800
X146250Y111800
X146250Y121800
X146250Y101800
X146250Y91800
X146250Y81800
X146250Y71800
X146250Y61800
X186250Y41800
X201250Y41800
X201250Y51800
X211250Y51800
X211250Y41800
X211250Y31800
X211250Y21800
X201250Y21800
X201250Y31800
X201250Y61800
X211250Y61800
X211250Y71800
X211250Y81800
X201250Y81800
X201250Y71800
X201250Y91800
X201250Y101800
X211250Y101800
X211250Y91800
X221250Y101800
X211250Y111800
X211250Y121800
X201250Y121800
X201250Y111800
X191250Y91800
X261250Y86800
X261250Y76800
X271250Y76800
X271250Y86800
X286250Y86800
X286250Y76800
X296250Y76800
X296250Y86800
X306250Y86800
X306250Y76800
X316250Y76800
X316250Y86800
X326250Y86800
X326250Y76800
X326250Y66800
X326250Y56800
X316250Y56800
X316250Y66800
X306250Y66800
X306250Y56800
X296250Y56800
X296250Y66800
X286250Y66800
X286250Y56800
X286250Y46800
X286250Y36800
X296250Y36800
X296250Y46800
X306250Y46800
X306250Y36800
X316250Y36800
X316250Y46800
X326250Y46800
X326250Y36800
X326250Y26800
X326250Y16800
X316250Y16800
X316250Y26800
X306250Y26800
X306250Y16800
X296250Y16800
X296250Y26800
X286250Y26800
X286250Y16800
X271250Y16800
X271250Y26800
X261250Y26800
X261250Y16800
X261250Y36800
X261250Y46800
X271250Y46800
X271250Y36800
X271250Y56800
X271250Y66800
X261250Y66800
X261250Y56800
X341250Y56800
X341250Y66800
X351250Y66800
X351250Y56800
X351250Y46800
X351250Y36800
X341250Y36800
X341250Y46800
X341250Y26800
X341250Y16800
X351250Y16800
X351250Y26800
X361250Y26800
X361250Y16800
X371250Y16800
X371250Y26800
X381250Y26800
X381250Y16800
X396250Y16800
X396250Y26800
X406250Y26800
X406250Y16800
X406250Y36800
X406250Y46800
X396250Y46800
X396250Y36800
X381250Y36800
X381250Y46800
X371250Y46800
X371250Y36800
X361250Y36800
X361250Y46800
X361250Y56800
X361250Y66800
X371250Y66800
X371250Y56800
X381250Y56800
X381250Y66800
X381250Y76800
X381250Y86800
X371250Y86800
X371250Y76800
X361250Y76800
X361250Y86800
X351250Y86800
X351250Y76800
X341250Y76800
X341250Y86800
X396250Y86800
X396250Y76800
X406250Y76800
X406250Y86800
X406250Y66800
X406250Y56800
X396250Y56800
X396250Y66800
X386250Y206800
X386250Y216800
X386250Y226800
X386250Y236800
X386250Y246800
X386250Y256800
X386250Y266800
X446250Y266800
X446250Y256800
X446250Y276800
X316250Y316800
X316250Y326800
X316250Y336800
X316250Y346800
X316250Y356800
X316250Y366800
X316250Y376800
X286250Y376800
X286250Y366800
X286250Y356800
X286250Y346800
X286250Y336800
X286250Y326800
X286250Y316800
X266250Y326800
X266250Y336800
X266250Y346800
X266250Y356800
X211250Y276800
X211250Y266800
X211250Y256800
X211250Y246800
X211250Y236800
X161250Y231800
X151250Y231800
X141250Y231800
X131250Y231800
X101250Y181800
X101250Y171800
T07
X99750Y261020
X99750Y288580
T08
X101250Y306800
X101250Y381800
X474950Y381800
X474950Y306800
M30
